<?xml version="1.0" encoding="UTF-8"?>
<svg id="Camada_2" data-name="Camada 2" xmlns="http://www.w3.org/2000/svg" viewBox="0 0 409.6 409.6">
  <defs>
    <style>
      .cls-1 {
        fill: #fff;
      }
    </style>
  </defs>
  <g id="Camada_1-2" data-name="Camada 1">
    <g>
      <path d="M253.96,409.6h-1.6v-89.81c-.85-5.22-1.74-10.44-3.85-15.32-2.76-6.4-8-10.86-10.52-17.02,37.1-4.67,70.57-24.28,83.23-60.87,8.82-25.48,6.38-48.93-6.19-72.49-1.6-3-9.77-14.72-10-16.41-.35-2.65,2.89-13.2,3.19-17.52.83-12.14-1.49-24.17-5.62-35.5-20.1.56-36.02,12.1-53.01,21.16-20.83-5.35-42.39-7.58-63.87-5.21-6.65.73-22.13,5.52-27.1,4.74-3.8-.6-20.73-12.12-26.81-14.71-8.43-3.59-15.92-5.04-25.02-6.07-7.61,16.66-7.49,35.6-2.88,53.09-41.3,56.87-19.52,127.48,49.32,146.35,5.28,1.45,11.66,1.89,16.58,3.4.89.27,1.41-.53,1.14,1.2-6.42,8.57-12.27,17.26-13.73,28.19-9.91,3.39-19.07,4.02-27.69-2.69-5.24-4.08-8.37-10.97-12.52-16.22-9.69-12.25-23.13-21.14-39.43-20.04l2.4,23.94c15.74.36,20.68,17.55,30.01,27.07,11.64,11.89,30.5,17.49,46.6,12.86v67.87s-1.59,0-1.59,0C75.31,388.28,15.71,318.3,2.64,237.43L.14,214.78c.31-7.12-.43-14.46,0-21.56C5.31,106.84,67.28,30.76,150.65,8.05c137.38-37.42,269.99,74.55,257.34,215.91-7.69,85.93-70.35,163.42-154.04,185.65Z"/>
      <path class="cls-1" d="M.14,193.22V0h409.46v409.6h-155.64c83.69-22.22,146.35-99.72,154.04-185.65C420.65,82.6,288.03-29.38,150.65,8.05,67.28,30.76,5.31,106.84.14,193.22Z"/>
      <path class="cls-1" d="M154.98,409.6H.14v-194.82l2.5,22.65c13.07,80.87,72.67,150.85,152.34,172.17Z"/>
    </g>
  </g>
</svg>