<?xml version="1.0" standalone="no"?>
<!DOCTYPE svg PUBLIC "-//W3C//DTD SVG 20010904//EN"
 "http://www.w3.org/TR/2001/REC-SVG-20010904/DTD/svg10.dtd">
<svg version="1.0" xmlns="http://www.w3.org/2000/svg"
 width="512.000000pt" height="512.000000pt" viewBox="0 0 512.000000 512.000000"
 preserveAspectRatio="xMidYMid meet">

<g transform="translate(0.000000,512.000000) scale(0.100000,-0.100000)"
fill="#000000" stroke="none">
<path d="M2321 5110 c-868 -84 -1644 -610 -2037 -1382 -139 -273 -221 -536
-266 -853 -20 -140 -17 -504 6 -660 39 -278 121 -541 247 -794 249 -502 647
-900 1150 -1150 815 -406 1779 -350 2539 147 297 194 579 482 771 788 74 116
184 342 234 478 51 138 110 376 131 531 23 157 26 521 6 660 -59 415 -191 769
-410 1099 -92 140 -185 254 -315 385 -399 403 -895 653 -1462 737 -122 18
-466 26 -594 14z m-584 -1285 c163 -48 275 -226 245 -387 -23 -121 -90 -212
-198 -263 -50 -25 -71 -29 -144 -30 -72 0 -94 4 -142 27 -75 35 -138 95 -174
165 -26 52 -29 67 -29 153 1 112 19 163 87 236 90 97 229 136 355 99z m1700
-839 c132 -43 237 -135 302 -263 31 -63 68 -197 80 -298 7 -55 11 -288 11
-593 l0 -503 -25 -24 -24 -25 -226 0 -226 0 -24 25 -25 24 0 443 c0 244 -5
474 -10 512 -26 179 -114 265 -271 266 -159 0 -254 -91 -293 -283 -13 -62 -16
-153 -16 -507 l0 -431 -25 -24 -24 -25 -218 0 c-228 1 -238 2 -261 47 -9 16
-12 231 -12 817 l0 795 24 28 24 28 193 3 c291 5 299 2 299 -129 l0 -81 68 68
c120 123 245 166 467 160 107 -3 145 -8 212 -30z m-1588 3 c63 -22 61 12 61
-859 l0 -792 -29 -29 -29 -29 -207 0 c-214 0 -254 7 -269 45 -3 9 -6 376 -6
814 0 786 0 799 20 824 11 14 30 28 43 30 50 10 385 6 416 -4z"/>
</g>
</svg>
