<?xml version="1.0" encoding="UTF-8"?>
<svg id="Camada_2" data-name="Camada 2" xmlns="http://www.w3.org/2000/svg" viewBox="0 0 512 512">
  <defs>
    <style>
      .cls-1 {
        fill: #fff;
      }
    </style>
  </defs>
  <g id="Camada_1-2" data-name="Camada 1">
    <g>
      <path d="M512,240.44v31.93c-1.54,5.75-1.34,12.32-2.14,18.31-14.59,109.99-101.85,199.76-211.23,217.84l-26.16,3.28c-10.56-.45-21.41.62-31.94,0C31.26,499.56-75.69,247.09,63.9,88.32,214.45-82.91,498.78,14.62,512,240.44ZM145.5,110.02c-39.56,4.71-38.62,62.01,2.73,64.55,51.67,3.18,50.41-70.89-2.73-64.55ZM406.21,387.1v-123.21c0-5.9-4.79-21.81-7.22-27.7-14.11-34.13-52.18-48.28-86.62-37.17-15.18,4.9-24.07,14.64-33.91,26.46v-25.94h-61.88v187.56h61.88v-106.25c0-24.01,22.73-42.79,46.19-34.2,11.06,4.05,19.68,18.83,19.68,30.21v110.24h61.88ZM182.64,387.1v-186.06l-1.5-1.5h-59.88l-1.5,1.5v186.06h62.88Z"/>
      <path class="cls-1" d="M240.53,511.8H0V0h512v240.44C498.78,14.62,214.45-82.91,63.9,88.32-75.69,247.09,31.26,499.56,240.53,511.8Z"/>
      <path class="cls-1" d="M512,272.36v239.44h-239.53l26.16-3.28c109.39-18.08,196.65-107.85,211.23-217.84.8-6,.6-12.57,2.14-18.31Z"/>
    </g>
  </g>
</svg>