<?xml version="1.0" encoding="UTF-8"?>
<svg id="Camada_2" data-name="Camada 2" xmlns="http://www.w3.org/2000/svg" viewBox="0 0 512 512">
  <defs>
    <style>
      .cls-1 {
        fill: #fff;
      }
    </style>
  </defs>
  <g id="Camada_1-2" data-name="Camada 1">
    <g>
      <path d="M512,240.53v31.94c-1.54,5.75-1.35,12.32-2.14,18.32-14.61,110.04-102.01,199.84-211.57,217.93l-26.2,3.28h-31.99c-5.76-1.54-12.34-1.34-18.35-2.14C108.88,494.92,17.11,403.64,2.34,290.79c-.79-6-.61-12.57-2.14-18.32.46-10.56-.62-21.41,0-31.94C8.33,101.82,130.64-6.08,269.58,1.01c128.23,6.54,234.91,111.49,242.42,239.52ZM107.17,408.2l79.51-21c64.71,31.89,140.83,21.11,189.4-33.36,74.83-83.93,35.31-218.94-72.78-248.76-132.95-36.67-242.13,104.97-174.59,223.76l-21.54,79.37Z"/>
      <path class="cls-1" d="M.2,240.53V0h511.8v240.53C504.5,112.5,397.82,7.55,269.58,1.01,130.64-6.08,8.33,101.82.2,240.53Z"/>
      <path class="cls-1" d="M.2,272.47c1.53,5.75,1.36,12.32,2.14,18.32,14.77,112.85,106.54,204.13,219.42,219.07,6.01.8,12.59.6,18.35,2.14H.2v-239.53Z"/>
      <path class="cls-1" d="M512,272.47v239.53h-239.91l26.2-3.28c109.56-18.09,196.96-107.89,211.57-217.93.8-6,.6-12.57,2.14-18.32Z"/>
      <path d="M144.15,371.27l11.97-46.31c-47.76-71.78-13.63-171.04,69.99-194.71,100.64-28.49,190.95,68.1,154.69,166.42-28.28,76.68-120.23,105.66-189.23,62.67l-47.42,11.93ZM204.85,181.88c-2.9.53-6.15,2.71-8.27,4.72-40.9,38.87,25.89,107.05,60.49,125.31,21.42,11.31,51.27,21.88,72.01,3.98,6.3-5.44,13.32-19.53,9.49-27.47-.78-1.61-26.05-13.63-29.81-15.15-1.81-.73-6.47-2.72-8.04-2.57-4.73.47-13.76,18.84-19.19,19.73-9.21,1.51-34.24-17.1-40.94-23.96-3.21-3.29-16.68-20.23-17.33-23.7-1.12-6,12.39-15.18,12.81-21.78.15-2.42-11.89-31.57-13.93-34.9-3.54-5.77-11.04-5.37-17.29-4.23Z"/>
    </g>
  </g>
</svg>